<svg viewBox="0 0 24 24" xmlns="http://www.w3.org/2000/svg" id="Add-Circle-Bold--Streamline-Ultimate" height="24" width="24">
  <desc>
    Add Circle Bold Streamline Icon: https://streamlinehq.com
  </desc>
  <path d="M1 12a11 11 0 1 0 22 0 11 11 0 1 0 -22 0" fill="none" stroke="#000000" stroke-linecap="round" stroke-linejoin="round" stroke-width="1"></path>
  <path d="M19 11a1 1 0 0 0 -1 -1h-4V6a1 1 0 0 0 -1 -1h-2a1 1 0 0 0 -1 1v4H6a1 1 0 0 0 -1 1v2a1 1 0 0 0 1 1h4v4a1 1 0 0 0 1 1h2a1 1 0 0 0 1 -1v-4h4a1 1 0 0 0 1 -1Z" fill="none" stroke="#000000" stroke-linecap="round" stroke-linejoin="round" stroke-width="1"></path>
</svg>