<svg viewBox="0 0 24 24" xmlns="http://www.w3.org/2000/svg" id="Alarm-Bell-Ring--Streamline-Ultimate" height="24" width="24">
  <desc>
    Alarm Bell Ring Streamline Icon: https://streamlinehq.com
  </desc>
  <path d="M18.5 19.5V15a6.5 6.5 0 0 0 -4 -6 2.5 2.5 0 0 0 -5 0 6.5 6.5 0 0 0 -4 6v4.5a2 2 0 0 1 -2 2h17a2 2 0 0 1 -2 -2" fill="none" stroke="#000000" stroke-linecap="round" stroke-linejoin="round" stroke-width="1"></path>
  <path d="M14 21.5a2 2 0 1 1 -4 0" fill="none" stroke="#000000" stroke-linecap="round" stroke-linejoin="round" stroke-width="1"></path>
  <path d="M3.5 9A5.5 5.5 0 0 1 9 3.5" fill="none" stroke="#000000" stroke-linecap="round" stroke-linejoin="round" stroke-width="1"></path>
  <path d="M0.5 9A8.5 8.5 0 0 1 9 0.5" fill="none" stroke="#000000" stroke-linecap="round" stroke-linejoin="round" stroke-width="1"></path>
  <path d="M20.5 9A5.5 5.5 0 0 0 15 3.5" fill="none" stroke="#000000" stroke-linecap="round" stroke-linejoin="round" stroke-width="1"></path>
  <path d="M23.5 9A8.5 8.5 0 0 0 15 0.5" fill="none" stroke="#000000" stroke-linecap="round" stroke-linejoin="round" stroke-width="1"></path>
</svg>