<svg xmlns="http://www.w3.org/2000/svg" fill="none" viewBox="0 0 24 24" id="Alert-Octagon-1--Streamline-Ultimate" height="24" width="24">
  <desc>
    Alert Octagon 1 Streamline Icon: https://streamlinehq.com
  </desc>
  <path stroke="#000000" stroke-linecap="round" stroke-linejoin="round" stroke-miterlimit="10" d="M16.9 1H7.6L1 7.5v9.4l6.6 6.5h9.3l6.6 -6.5V7.5z" stroke-width="1"></path>
  <path stroke="#000000" stroke-linecap="round" stroke-linejoin="round" stroke-miterlimit="10" d="M12.2 18.7c0.8284 0 1.5 -0.6716 1.5 -1.5 0 -0.8285 -0.6716 -1.5 -1.5 -1.5 -0.8285 0 -1.5 0.6715 -1.5 1.5 0 0.8284 0.6715 1.5 1.5 1.5" stroke-width="1"></path>
  <path stroke="#000000" stroke-linecap="round" stroke-linejoin="round" stroke-miterlimit="10" d="M14.2 7.19995c0 1.1 -2 5.50005 -2 5.50005s-2 -4.40005 -2 -5.50005 0.9 -2 2 -2 2 0.9 2 2" stroke-width="1"></path>
</svg>