<svg xmlns="http://www.w3.org/2000/svg" viewBox="0 0 24 24" id="Alert-Bell-Notification-2--Streamline-Ultimate" height="24" width="24">
  <desc>
    Alert Bell Notification 2 Streamline Icon: https://streamlinehq.com
  </desc>
  <title>alert-bell-notification-2</title>
  <path d="M16 4.998a3 3 0 1 0 6 0 3 3 0 1 0 -6 0" fill="none" stroke="#000000" stroke-linecap="round" stroke-linejoin="round" stroke-width="1"></path>
  <path d="M19.437 10.489A8 8 0 0 1 19.5 11.5V18a1.5 1.5 0 0 0 1.5 1.5H2A1.5 1.5 0 0 0 3.5 18v-6.5a8.008 8.008 0 0 1 10 -7.749" fill="none" stroke="#000000" stroke-linecap="round" stroke-linejoin="round" stroke-width="1"></path>
  <path d="m11.5 0.499 0 3" fill="none" stroke="#000000" stroke-linecap="round" stroke-linejoin="round" stroke-width="1"></path>
  <path d="M13.95 21.5a2.5 2.5 0 0 1 -4.9 0" fill="none" stroke="#000000" stroke-linecap="round" stroke-linejoin="round" stroke-width="1"></path>
</svg>